
<svg width="480px" height="458px" viewBox="0 0 480 458" version="1.1" xmlns="http://www.w3.org/2000/svg" xmlns:xlink="http://www.w3.org/1999/xlink">
    <defs>
        <linearGradient x1="50%" y1="0%" x2="50%" y2="100%" id="linearGradient-1">
            <stop stop-color="#FFFFFF" stop-opacity="0.5" offset="0%"></stop>
            <stop stop-color="#000000" stop-opacity="0.5" offset="100%"></stop>
        </linearGradient>
        <linearGradient x1="50%" y1="0%" x2="50%" y2="100%" id="linearGradient-2">
            <stop stop-color="#FFFFFF" stop-opacity="0.5" offset="0%"></stop>
            <stop stop-color="#000000" stop-opacity="0.5" offset="100%"></stop>
        </linearGradient>
    </defs>
    <g id="Page-1" stroke="none" stroke-width="1" fill="none" fill-rule="evenodd">
        <g id="Group-5" transform="translate(4.000000, 4.000000)">
            <g id="Group-2" transform="translate(143.500000, 121.800000)">
                <g id="Group" transform="translate(87.305556, 87.318087)">
                    <ellipse id="Oval" fill="#74C476" cx="69.8444444" cy="69.8544699" rx="69.8444444" ry="69.8544699"></ellipse>
                    <text id="Erde" fill="#FFFFFF" font-family="Arial-BoldMT, Arial" font-size="17.5" font-weight="bold">
                        <tspan x="50.3919298" y="76.0544699">Erde</tspan>
                    </text>
                </g>
                <ellipse id="Oval" stroke="#67A9CF" stroke-width="35" cx="157.15" cy="157.172557" rx="157.15" ry="157.172557"></ellipse>
                <text id="Atmosphäre" fill="#000000" font-family="Arial-BoldMT, Arial" font-size="17.5" font-weight="bold">
                    <tspan x="106.448364" y="263.8">Atmosphäre</tspan>
                </text>
                <text id="Treibhausgase" fill="#FFFFFF" font-family="Arial-BoldMT, Arial" font-size="16.1" font-weight="bold">
                    <tspan x="100.776416" y="314.637838">Treibhausgase</tspan>
                </text>
            </g>
            <path id="Line" d="M249.804617,47.2862555 L241.434117,60.5942987 L238.471435,58.7308297 L252.055254,37.1342629 L263.457756,59.9578209 L260.326751,61.5220502 L253.300404,47.4579214 L243.862061,239.659347 L240.366273,239.487681 L249.804617,47.2862555 Z" fill="#FC8D59" fill-rule="nonzero"></path>
            <path id="Line" d="M286.438083,201.481127 L284.796979,185.845397 L288.277858,185.480049 L290.941077,210.854034 L267.873507,199.953617 L269.368859,196.789139 L283.58335,203.506096 L244.572649,148.510118 L247.427382,146.485149 L286.438083,201.481127 Z" fill="#FC8D59" fill-rule="nonzero"></path>
            <path id="Line" d="M230.233301,222.827392 L222.726743,197.044051 L229.447694,195.087315 L242.428501,239.673471 L197.584423,227.613813 L199.402305,220.853983 L225.334797,227.827857 L110.898492,115.724951 L115.796996,110.724486 L230.233301,222.827392 Z" fill="#FC8D59" fill-rule="nonzero"></path>
            <g id="Group-4">
                <g id="Group-3" transform="translate(42.527823, 42.527126)" fill="#FFEDA0">
                    <ellipse id="Oval" cx="43.5735887" cy="43.5728745" rx="43.5735887" ry="43.5728745"></ellipse>
                </g>
                <path d="M86.1014113,-0.00141129032 L86.1014113,172.201411" id="Line-2" stroke="#FFEDA0" stroke-width="7" stroke-linecap="square" transform="translate(86.101411, 86.100000) rotate(90.000000) translate(-86.101411, -86.100000) "></path>
                <path d="M68.9307166,7.92757393 L67.5373617,128.538268" id="Line-2" stroke="#FFEDA0" stroke-width="7" stroke-linecap="square" transform="translate(68.234039, 68.232921) rotate(-45.000000) translate(-68.234039, -68.232921) "></path>
                <path d="M86.7985887,0.348582996 L86.7985887,171.851417" id="Line-2" stroke="#FFEDA0" stroke-width="7" stroke-linecap="square"></path>
                <path d="M86.228474,0.125649324 L86.2270627,172.327061" id="Line-2" stroke="#FFEDA0" stroke-width="7" stroke-linecap="square" transform="translate(86.227768, 86.226355) rotate(45.000000) translate(-86.227768, -86.226355) "></path>
            </g>
        </g>
    </g>
</svg>
